<?xml version="1.0" standalone="no"?>
<!DOCTYPE svg PUBLIC "-//W3C//DTD SVG 20010904//EN"
 "http://www.w3.org/TR/2001/REC-SVG-20010904/DTD/svg10.dtd">
<svg version="1.0" xmlns="http://www.w3.org/2000/svg"
 width="700.000000pt" height="700.000000pt" viewBox="0 0 700.000000 700.000000"
 preserveAspectRatio="xMidYMid meet">
<metadata>
Created by potrace 1.11, written by Peter Selinger 2001-2013
</metadata>
<g transform="translate(0.000000,700.000000) scale(0.100000,-0.100000)"
fill="#000000" stroke="none">
<path d="M0 3499 l0 -3501 32 24 c933 705 1998 1138 3006 1224 84 7 84 7 114
48 54 75 187 294 251 413 216 407 329 749 389 1168 20 141 17 563 -5 705 -69
436 -204 774 -473 1183 -118 179 -88 164 -244 120 -190 -54 -512 -198 -654
-294 -137 -91 -411 -381 -557 -589 l-44 -61 -8 28 c-11 39 -1 260 17 363 30
168 105 349 192 465 24 33 78 99 119 147 75 87 75 88 43 82 -80 -14 -151 -39
-263 -94 -209 -102 -367 -220 -546 -408 l-102 -107 6 61 c4 34 22 108 41 166
121 369 370 661 721 845 l79 41 -39 8 c-21 4 -106 4 -189 1 -170 -7 -318 -34
-516 -93 -138 -41 -180 -50 -180 -39 0 22 122 188 192 261 237 246 531 381
908 416 337 31 737 -91 1040 -316 41 -31 78 -56 83 -56 4 0 58 43 120 96 226
194 450 351 612 429 265 128 655 138 998 24 113 -38 290 -122 377 -181 l65
-43 -40 -2 c-276 -17 -543 -68 -708 -136 l-59 -24 89 -6 c244 -18 500 -146
727 -366 82 -80 231 -259 223 -268 -2 -2 -34 10 -70 26 -176 79 -441 160 -637
195 -123 22 -286 37 -330 30 l-38 -6 99 -49 c123 -60 200 -112 285 -191 80
-76 192 -223 263 -346 55 -96 131 -263 131 -287 0 -10 -26 3 -72 34 -142 96
-306 179 -558 286 -257 109 -371 134 -632 142 -160 5 -448 -10 -448 -23 0 -2
24 -41 53 -86 267 -414 435 -816 561 -1338 97 -402 119 -570 119 -895 -1 -484
-89 -925 -274 -1376 -27 -67 -48 -123 -46 -125 2 -3 58 -13 125 -24 401 -65
836 -188 1222 -345 500 -203 1049 -523 1355 -790 l75 -66 0 3501 0 3500 -3500
0 -3500 0 0 -3501z"/>
</g>
</svg>
